<svg xmlns="http://www.w3.org/2000/svg" width="360" height="180" fill="none" class="wd-graphic" focusable="false" role="presentation" viewBox="0 0 360 180"><g class="wd-icon-container"><path fill="#B9C0C7" d="M50 59c5.523 0 10-4.477 10-10s-4.477-10-10-10-10 4.477-10 10 4.477 10 10 10zM313 133.682a9.854 9.854 0 0 1-2.285 6.318h-46.608c-.302-2.223.04-4.485.985-6.519a11.706 11.706 0 0 1 4.346-4.953 12.014 12.014 0 0 1-.058-8.908 11.994 11.994 0 0 1 6.09-6.494 11.976 11.976 0 0 1 15.665 5.264 9.18 9.18 0 0 1 12.518 1.556 9.198 9.198 0 0 1 1.948 4.156 9.88 9.88 0 0 1 5.334 3.524 9.908 9.908 0 0 1 2.065 6.056z" opacity=".23"/><path fill="#FFDA61" d="M180.311 75.91a46.214 46.214 0 0 1 16.563 2.219c7.449 2.421 14.238 6.697 19.795 12.469 5.558 5.771 9.721 12.869 12.14 20.695a53.6 53.6 0 0 1 1.603 6.671C256.312 116.98 277 96.106 277 70.5c0-26.233-21.714-47.5-48.5-47.5S180 44.267 180 70.5c0 1.83.106 3.635.311 5.41z"/><path fill="#B9C0C7" d="M97.274 132.492c-6.04 2.788-11.482 6.84-15.998 11.912C76.76 149.475 73.265 155.461 71 162h187c-.683-7.203-3.861-13.886-8.924-18.765-5.063-4.879-11.655-7.61-18.508-7.668a54.144 54.144 0 0 0-1.759-24.274c-2.419-7.826-6.582-14.924-12.14-20.695-5.557-5.772-12.346-10.048-19.795-12.47a46.155 46.155 0 0 0-23.007-1.444c-2.314-7.633-6.288-14.588-11.603-20.307-5.316-5.72-11.825-10.046-19.006-12.631a46.16 46.16 0 0 0-22.353-2.26c-7.516 1.1-14.683 4.043-20.929 8.594-6.246 4.55-11.396 10.583-15.04 17.613-3.642 7.03-5.676 14.865-5.939 22.875-.263 8.01 1.254 15.973 4.427 23.253 3.174 7.28 7.917 13.674 13.85 18.671z" opacity=".23"/><path fill="#99E0FF" d="M60.095 86.184l49.799 16.317 12.588 37.705c1.429 4.276 6.906 5.494 10.018 2.234l23.645-24.794 51.545 17.894a2.04 2.04 0 0 0 2.486-.998l38.907-76.164L60.49 82.233c-2.168.273-2.457 3.276-.395 3.951z"/><path fill="#40B4E5" d="M109.963 101.653l13.139 39.354c1.181 3.527 5.694 4.534 8.266 1.842l24.428-25.621c.274-.287.582-.542.917-.758l92.425-58.942-139.175 44.125z"/><path fill="#B9C0C7" d="M315 81a5 5 0 1 0 0-10 5 5 0 0 0 0 10z" opacity=".23"/></g></svg>